# xmcd CD database file
#
# Track frame offsets:
#	150
#	15786
#	30355
#	44826
#	54747
#	70222
#	83935
#	99335
#	112400
#	130626
#	144334
#	157108
#	172024
#	184950
#	197789
#	211181
#	225154
#	237081
#	250430
#	265986
#
# Disc length: 3746 seconds
#
# Revision: 0
# Processed by: cddbd v1.5.2PL0 Copyright (c) Steve Scherf et al.
# Submitted via: CDex 1.51
#
DISCID=170ea014
DTITLE=Die Edlseer - Stolz auf Österreich
DYEAR=2008
DGENRE=Volkstümlich
TTITLE0=In Österreich
TTITLE1=Fuhrmannslied NEU 2008
TTITLE2=Du sollst gluecklich sein
TTITLE3=Waldheimat-Polka
TTITLE4=Jubilaeums-Medley
TTITLE5=Edlsee-NEU 2008
TTITLE6=Madonna Mia
TTITLE7=Wer hat die Sperrstund« erfunden
TTITLE8=Edlseer Polka-Kracher-NEU 2008
TTITLE9=Weil i a Schuerzenjaeger bin
TTITLE10=Bleib Bei Volksmusik
TTITLE11=Der Stolz von Österreich
TTITLE12=Aber dann im Garten Eden-NEU 2008
TTITLE13=A Musikant Im Trachtengwand
TTITLE14=Edlziller Party-Knueller
TTITLE15=Unter einem Dach
TTITLE16=EM-Polka
TTITLE17=Immer wieder Oesterreich
TTITLE18=Kalinka ist hier
TTITLE19=Ueberall auf der Welt scheint die Sonne-NEU 2008
EXTD=YEAR: 2008
EXTT0=
EXTT1=
EXTT2=
EXTT3=
EXTT4=
EXTT5=
EXTT6=
EXTT7=
EXTT8=
EXTT9=
EXTT10=
EXTT11=
EXTT12=
EXTT13=
EXTT14=
EXTT15=
EXTT16=
EXTT17=
EXTT18=
EXTT19=
PLAYORDER=
